<svg width="44" height="30" viewBox="0 0 44 30" fill="none" xmlns="http://www.w3.org/2000/svg">
<path d="M0.688756 10.411C0.567241 10.8161 0.405207 11.4238 0.283691 11.8289C0.445725 11.2213 0.85083 10.6946 1.37745 10.411C2.47121 8.99318 4.17262 8.18301 5.95508 8.18301C2.67376 7.25129 1.661 8.30453 1.37745 8.83115C1.09386 9.35777 0.85083 9.88442 0.688756 10.411Z" fill="#2A72E5"/>
<path d="M4.09161 5.38776L3.60547 5.83338C4.17261 5.38776 5.06381 5.46879 6.48168 6.15745C6.80575 5.59031 7.17033 5.10421 7.61596 4.6991C6.92726 4.21296 6.27913 3.76734 5.8335 3.96989C5.22585 4.41551 4.61823 4.86114 4.09161 5.38776Z" fill="#2A72E5"/>
<path d="M10.8162 1.57986C10.3301 1.78241 9.64137 2.02548 9.15527 2.22804C9.39834 2.51158 9.64137 2.79517 9.84393 3.11924C10.5731 2.71418 11.3833 2.34955 12.153 2.066C12.0315 1.49886 11.991 1.21527 12.153 1.13428C11.7884 1.25579 11.2213 1.41783 10.8162 1.57986Z" fill="#2A72E5"/>
<path d="M18.9585 0.0405185C18.1889 0.121556 17.1761 0.202552 16.4064 0.283589C16.0013 0.364586 15.8393 0.52662 15.6367 1.13428C16.69 0.931725 17.7027 0.810209 18.756 0.729172C19.0801 0.283589 19.5662 0 20.1333 0L18.9585 0.0405185Z" fill="#2A72E5"/>
<path d="M27.4652 0.486138C26.736 0.364582 25.8045 0.243067 25.0753 0.16203C24.3461 0.0810336 23.6169 0.243067 23.0498 0.648172C24.1436 0.68865 25.2373 0.810206 26.3312 0.97224C27.1412 0.607653 28.0324 0.526616 28.8831 0.729169C28.4376 0.68865 27.8704 0.567135 27.4652 0.486138Z" fill="#2A72E5"/>
<path d="M35.0813 2.91669C34.5549 2.67362 33.8257 2.34955 33.2989 2.10648C32.2458 1.66085 31.071 1.57986 29.9771 1.82289C30.8682 2.10648 31.719 2.43055 32.5294 2.79513C33.9877 2.6331 35.4864 2.95717 36.7016 3.76737C36.2156 3.5243 35.608 3.15972 35.0813 2.91669Z" fill="#2A72E5"/>
<path d="M42.6978 10.8567C42.333 9.84391 41.847 8.87167 41.239 7.98046L40.8747 7.45384C39.5379 5.59039 37.4312 4.41559 35.1221 4.37508C35.6489 4.78018 36.1756 5.26628 36.5804 5.79294C40.4291 6.31956 43.1026 9.72239 43.3458 14.4215C43.3054 13.2467 43.1026 12.0315 42.6978 10.8567Z" fill="#2A72E5"/>
<path d="M37.1884 25.2782C37.9176 24.7922 38.6063 24.2654 39.2951 23.6577C39.5379 23.4147 39.8619 23.0906 40.1051 22.8475C44.9257 17.2572 42.7382 9.23625 37.5532 7.77786C37.5936 8.02093 37.634 8.30452 37.634 8.54755C37.634 8.58807 37.634 8.62859 37.634 8.66911C37.634 8.91214 37.5936 9.19573 37.5532 9.43876C43.0622 11.9504 42.5358 21.8753 36.6616 25.6022L37.1884 25.2782Z" fill="#2A72E5"/>
<path d="M29.9367 28.2353C30.6659 28.0329 31.5975 27.7897 32.3267 27.5465C39.416 24.873 40.5503 14.0164 36.5801 11.4238C36.1345 11.9504 35.6485 12.396 35.1217 12.8011C38.484 16.4875 35.041 26.9797 28.7212 28.4785L29.9367 28.2353Z" fill="#2A72E5"/>
<path d="M21.7131 29.0861C22.3613 29.0861 23.2525 29.0861 23.9412 29.0457C29.8152 28.4381 33.9875 17.6623 32.5291 14.2595C31.7191 14.624 30.828 14.9076 29.9772 15.1507C29.9772 19.4852 24.1437 29.1265 19.9712 29.0049C20.4978 29.0457 21.1865 29.0861 21.7131 29.0861Z" fill="#2A72E5"/>
<path d="M13.166 27.9517C13.8141 28.1137 14.7054 28.3165 15.3535 28.4381C17.8246 28.6001 23.9822 20.2954 26.2508 15.8798C25.1569 16.0014 24.0632 16.1229 22.9694 16.1229C21.1869 17.8648 16.4878 23.2932 15.5561 24.3462C13.166 27.1009 12.2748 27.6277 11.9912 27.5873L13.166 27.9517Z" fill="#2A72E5"/>
<path d="M6.03623 24.8326C6.7654 25.3186 7.49457 25.7238 8.26426 26.129L8.3453 26.1694C8.46682 25.4806 14.3408 18.4725 18.8373 16.0014C17.7841 15.8798 16.7308 15.7178 15.7181 15.4747C10.3303 17.5407 4.82092 23.8603 5.75264 24.6298L6.03623 24.8326Z" fill="#2A72E5"/>
<path d="M2.10636 21.0651C2.34939 21.3891 2.71401 21.8753 2.99756 22.1994C1.78225 20.3359 6.88653 15.5557 12.1933 14.4215C11.3831 14.0974 10.6134 13.7328 9.88426 13.3277C5.02305 13.8543 0.364422 17.2977 1.33667 19.6877C1.53922 20.1334 1.86328 20.7005 2.10636 21.0651Z" fill="#2A72E5"/>
<path d="M0 14.3C0 14.381 0 14.462 0 14.5431C0.0405185 14.9482 0.0405187 15.4748 0.0809969 15.8799C-0.0405183 13.2468 3.92945 11.5453 7.61587 11.6669C7.17025 11.2213 6.76514 10.6946 6.48159 10.168C3.40283 9.76291 1.70142 10.5731 0.810209 11.3023C0.283589 12.234 0.0405185 13.2467 0 14.3Z" fill="#2A72E5"/>
</svg>
